HIERARCHY
ROOT hip
{
	OFFSET 0.000000 0.000000 0.000000 
	CHANNELS 6 Xposition Yposition Zposition Xrotation Zrotation Yrotation
	JOINT abdomen
	{
		OFFSET 0.000000 3.402643 0.000000 
		CHANNELS 3 Xrotation Zrotation Yrotation
		JOINT chest
		{
			OFFSET 0.000000 8.438565 -0.680529 
			CHANNELS 3 Xrotation Zrotation Yrotation
			JOINT neck
			{
				OFFSET 0.000000 10.207942 -0.272212 
				CHANNELS 3 Xrotation Zrotation Yrotation
				JOINT head
				{
					OFFSET 0.000000 3.130431 0.000000 
					CHANNELS 3 Xrotation Zrotation Yrotation
					End Site
					{
						OFFSET 0.000000 3.130435 0.000000 
					}
				}
			}
			JOINT lCollar
			{
				OFFSET 3.470700 6.669187 -0.816635 
				CHANNELS 3 Yrotation Zrotation Xrotation
				JOINT lShldr
				{
					OFFSET 3.198488 0.000000 0.000000 
					CHANNELS 3 Zrotation Yrotation Xrotation
					JOINT lForeArm
					{
						OFFSET 10.139888 0.000000 0.000000 
						CHANNELS 3 Yrotation Zrotation Xrotation
						JOINT lHand
						{
							OFFSET 8.370511 0.000000 0.000000 
							CHANNELS 3 Zrotation Yrotation Xrotation
							End Site
							{
								OFFSET 4.083176 0.000000 0.000000 
							}
						}
					}
				}
			}
			JOINT rCollar
			{
				OFFSET -3.470700 6.669187 -0.816635 
				CHANNELS 3 Yrotation Zrotation Xrotation
				JOINT rShldr
				{
					OFFSET -3.198488 0.000000 0.000000 
					CHANNELS 3 Zrotation Yrotation Xrotation
					JOINT rForeArm
					{
						OFFSET -10.139888 0.000000 0.000000 
						CHANNELS 3 Yrotation Zrotation Xrotation
						JOINT rHand
						{
							OFFSET -8.370511 0.000000 0.000000 
							CHANNELS 3 Zrotation Yrotation Xrotation
							End Site
							{
								OFFSET -4.083176 0.000000 0.000000 
							}
						}
					}
				}
			}
		}
	}
	JOINT lThigh
	{
		OFFSET 5.308129 -1.633274 1.361059 
		CHANNELS 3 Xrotation Zrotation Yrotation
		JOINT lShin
		{
			OFFSET -2.041588 -20.007561 0.000000 
			CHANNELS 3 Xrotation Zrotation Yrotation
			JOINT lFoot
			{
				OFFSET 0.000000 -19.190928 -1.224953 
				CHANNELS 3 Xrotation Yrotation Zrotation
				End Site
				{
					OFFSET 0.000000 -2.449906 4.627600 
				}
			}
		}
	}
	JOINT rThigh
	{
		OFFSET -5.308129 -1.633274 1.361059 
		CHANNELS 3 Xrotation Zrotation Yrotation
		JOINT rShin
		{
			OFFSET 2.041588 -20.007561 0.000000 
			CHANNELS 3 Xrotation Zrotation Yrotation
			JOINT rFoot
			{
				OFFSET 0.000000 -19.190928 -1.224953 
				CHANNELS 3 Xrotation Yrotation Zrotation
				End Site
				{
					OFFSET 0.000000 -2.449906 4.627600 
				}
			}
		}
	}
}
MOTION
Frames: 20
Frame Time: 0.033333
-49.540451 46.400639 -50.362465 3.037936 1.336011 68.450012 0.000000 0.000000 0.000000 1.426505 1.825606 4.567227 -8.603516 0.000000 0.000000 12.356518 2.290006 20.238337 -2.957607 -0.090307 -0.002318 -76.463554 6.538415 -7.328254 -76.925613 -46.943584 -11.655848 45.235088 -29.577406 0.227759 2.957607 0.090307 -0.002334 74.023010 10.643646 -6.524978 69.562881 28.629494 -2.844738 -42.641056 35.068806 15.771279 0.282242 12.183010 9.790228 -1.088431 -0.434721 -0.904491 5.412547 -3.982834 -21.230198 17.080187 -9.393507 -30.291536 -4.974825 -0.736834 7.360855 -11.853214 -8.191756 9.017619 
-49.552349 46.402679 -50.343876 3.067205 1.306720 68.527245 0.000000 0.000000 0.000000 1.416735 1.825614 4.566916 -8.603516 0.000000 0.000000 12.297828 2.270667 20.234737 -2.957607 -0.090307 -0.002318 -76.374039 6.483942 -7.405085 -76.859077 -46.899548 -11.614801 45.096603 -29.569586 0.311053 2.957607 0.090307 -0.002334 74.091743 10.627445 -6.506451 69.528458 28.643517 -2.821020 -42.838741 35.071659 15.623669 0.213662 12.192118 9.768349 -1.071715 -0.426156 -0.924997 5.410940 -4.010038 -21.249107 17.102146 -9.345006 -30.320644 -5.056288 -0.727364 7.367525 -11.834342 -8.240638 8.961197 
-49.563789 46.398373 -50.327793 3.076949 1.287205 68.585014 0.000000 0.000000 0.000000 1.416743 1.835377 4.567158 -8.603516 0.000000 0.000000 12.229365 2.251348 20.240557 -2.957607 -0.090307 -0.002318 -76.324265 6.437212 -7.492183 -76.789925 -46.885326 -11.569236 44.967842 -29.560932 0.389526 2.957607 0.090307 -0.002334 74.160324 10.621086 -6.505612 69.492821 28.632719 -2.808102 -42.968075 35.080311 15.525309 0.164752 12.192605 9.736778 -1.075747 -0.418069 -0.944561 5.430208 -4.040632 -21.266775 17.128166 -9.306524 -30.351879 -5.128996 -0.716305 7.403768 -11.810238 -8.308590 8.927478 
-49.586563 46.392708 -50.290855 3.086648 1.228684 68.738319 0.000000 0.000000 0.000000 1.416750 1.845139 4.557635 -8.603516 0.000000 0.000000 12.112019 2.222394 20.253691 -2.957607 -0.090307 -0.002318 -76.202965 6.335435 -7.568453 -76.702461 -46.816257 -11.515169 44.748138 -29.530592 0.536650 2.957607 0.090307 -0.002334 74.293930 10.646995 -6.421314 69.375259 28.642834 -2.787690 -43.454765 35.107685 15.224244 0.028200 12.228829 9.694128 -1.066235 -0.388894 -0.955541 5.448548 -4.150081 -21.310247 17.167841 -9.199452 -30.387966 -5.254422 -0.679859 7.407334 -11.753345 -8.405205 8.871005 
-49.597897 46.389877 -50.265137 3.115907 1.189645 68.824707 0.000000 0.000000 0.000000 1.406995 1.864673 4.567569 -8.603516 0.000000 0.000000 12.004426 2.183651 20.276499 -2.957607 -0.090307 -0.002318 -76.104370 6.281255 -7.684186 -76.631676 -46.761253 -11.487659 44.539234 -29.509138 0.669080 2.957607 0.090307 -0.002334 74.373093 10.631456 -6.441959 69.302475 28.632303 -2.760216 -43.642540 35.111355 15.057343 -0.069729 12.238083 9.631524 -1.049505 -0.376508 -0.946816 5.447072 -4.200079 -21.325945 17.198154 -9.140071 -30.435507 -5.336007 -0.678301 7.473162 -11.764081 -8.516768 8.814530 
-49.612061 46.381264 -50.245308 3.135409 1.160370 68.901627 0.000000 0.000000 0.000000 1.387469 1.884213 4.567410 -8.603516 0.000000 0.000000 11.916409 2.154600 20.290985 -2.957607 -0.090307 -0.002318 -76.036255 6.245058 -7.810116 -76.531105 -46.699352 -11.422396 44.338943 -29.477137 0.777191 2.957607 0.090307 -0.002334 74.452278 10.625802 -6.491856 69.244003 28.630793 -2.736543 -43.727837 35.084465 14.959279 -0.127833 12.237782 9.589510 -1.039604 -0.376447 -0.956999 5.447772 -4.194695 -21.344343 17.226936 -9.080731 -30.482332 -5.446733 -0.667842 7.478793 -11.736962 -8.559997 8.794492 
-49.617836 46.375595 -50.231033 3.154912 1.131096 68.959007 0.000000 0.000000 0.000000 1.367958 1.923280 4.567706 -8.603516 0.000000 0.000000 11.847919 2.115747 20.295967 -2.957607 -0.090307 -0.002318 -76.017616 6.226013 -7.917199 -76.441780 -46.712273 -11.394186 44.217663 -29.448210 0.860553 2.957607 0.090307 -0.002334 74.472466 10.636827 -6.560429 69.205490 28.605726 -2.723047 -43.704639 35.056984 14.930068 -0.176647 12.239316 9.528383 -1.043383 -0.368187 -0.976645 5.437433 -4.168525 -21.337118 17.268616 -9.052100 -30.556398 -5.538983 -0.658773 7.534057 -11.716651 -8.612105 8.769296 
-49.614887 46.375595 -50.222424 3.184194 1.111563 68.997559 0.000000 0.000000 0.000000 1.328889 1.942837 4.566851 -8.603516 0.000000 0.000000 11.818541 2.086557 20.303009 -2.957607 -0.090307 -0.002318 -76.029243 6.244793 -7.966218 -76.375374 -46.719158 -11.364049 44.144009 -29.405422 0.909648 2.957607 0.090307 -0.002334 74.483414 10.637617 -6.627103 69.160713 28.588987 -2.719056 -43.660706 35.021446 14.926087 -0.215754 12.203029 9.455272 -1.039600 -0.376457 -0.956999 5.439805 -4.172766 -21.317629 17.277716 -9.051832 -30.656290 -5.538884 -0.677301 7.623421 -11.735502 -8.628251 8.814642 
-49.614887 46.367100 -50.213924 3.193951 1.101802 69.026497 0.000000 0.000000 0.000000 1.309377 1.981905 4.547554 -8.603516 0.000000 0.000000 11.779393 2.057385 20.329254 -2.957607 -0.090307 -0.002318 -76.069984 6.262153 -8.005836 -76.323448 -46.719158 -11.354855 44.071445 -29.372351 0.973304 2.957607 0.090307 -0.002334 74.484459 10.637877 -6.685688 69.132500 28.571102 -2.726014 -43.608250 34.996456 14.936080 -0.234651 12.175486 9.413068 -1.039595 -0.376471 -0.956999 5.427282 -4.147537 -21.311354 17.303732 -9.043585 -30.744354 -5.546430 -0.699441 7.663792 -11.756380 -8.632896 8.833317 
-49.606392 46.361435 -50.213924 3.213475 1.092031 69.036095 0.000000 0.000000 0.000000 1.280101 2.030744 4.528108 -8.603516 0.000000 0.000000 11.750039 2.037941 20.366190 -2.957607 -0.090307 -0.002318 -76.110039 6.279702 -8.006399 -76.284912 -46.711273 -11.340013 44.038944 -29.345678 1.012487 2.957607 0.090307 -0.002334 74.456497 10.636727 -6.753646 69.106255 28.542316 -2.735120 -43.547276 34.982002 14.946120 -0.235321 12.140985 9.351546 -1.039589 -0.376488 -0.956999 5.401177 -4.102572 -21.279022 17.295565 -9.052204 -30.846357 -5.502732 -0.736974 7.736277 -11.818171 -8.645051 8.866760 
-49.600731 46.352825 -50.211094 3.242777 1.091999 69.056183 0.000000 0.000000 0.000000 1.270352 2.060041 4.518650 -8.603516 0.000000 0.000000 11.701125 2.008782 20.392162 -2.957607 -0.090307 -0.002318 -76.158699 6.277303 -7.997242 -76.232430 -46.710682 -11.321094 44.008625 -29.338453 1.051666 2.957607 0.090307 -0.002334 74.418312 10.644846 -6.821438 69.094650 28.523323 -2.757689 -43.507027 34.975609 14.946310 -0.215627 12.086689 9.309238 -1.071159 -0.377436 -0.975237 5.390248 -4.042587 -21.241541 17.345007 -9.061479 -30.979456 -5.482158 -0.755481 7.816473 -11.869203 -8.631979 8.925733 
-49.592232 46.347160 -50.213924 3.272079 1.091967 69.076271 0.000000 0.000000 0.000000 1.260596 2.079575 4.489435 -8.603516 0.000000 0.000000 11.642460 1.989388 20.408607 -2.957607 -0.090307 -0.002318 -76.197418 6.275441 -7.978196 -76.203545 -46.704731 -11.309963 43.962070 -29.362038 1.100693 2.957607 0.090307 -0.002334 74.392021 10.614482 -6.899268 69.103638 28.505220 -2.774495 -43.461956 35.008892 14.946548 -0.176450 12.024658 9.257180 -1.109965 -0.387131 -0.992913 5.371492 -3.972384 -21.210627 17.354654 -9.110814 -31.090981 -5.453162 -0.756423 7.846773 -11.902301 -8.604230 8.960468 
-49.575123 46.344326 -50.216759 3.301382 1.091935 69.086601 0.000000 0.000000 0.000000 1.250839 2.099109 4.479744 -8.603516 0.000000 0.000000 11.583778 1.960238 20.434341 -2.957607 -0.090307 -0.002318 -76.234642 6.244319 -7.959037 -76.144676 -46.691757 -11.268233 43.901485 -29.435875 1.164538 2.957607 0.090307 -0.002334 74.354507 10.612895 -6.976857 69.111389 28.499119 -2.808655 -43.476746 35.125450 14.896267 -0.128138 11.944285 9.194453 -1.158626 -0.396850 -1.000400 5.354462 -3.898648 -21.189463 17.375645 -9.159335 -31.232426 -5.412561 -0.775117 7.927578 -11.918490 -8.569090 9.020416 
-49.558014 46.335831 -50.216759 3.330684 1.091903 69.096916 0.000000 0.000000 0.000000 1.162897 2.108941 4.603678 -8.603516 0.000000 0.000000 11.583743 1.940733 20.325903 -2.957607 -0.090307 -0.002318 -76.250427 6.224588 -7.802976 -76.082024 -46.688519 -11.228782 43.845268 -29.548597 1.208840 2.957607 0.090307 -0.002334 74.305229 10.493748 -7.150471 69.108948 28.485735 -2.817735 -43.525795 35.278374 14.796976 -0.068871 11.875426 9.113056 -1.226407 -0.406876 -0.977750 5.336270 -3.831173 -21.149754 17.392828 -9.197979 -31.351818 -5.400699 -0.794936 7.988079 -11.946889 -8.560262 9.089005 
-49.540905 46.324387 -50.225365 3.369764 1.101608 69.088478 0.000000 0.000000 0.000000 1.114043 2.118740 4.738791 -8.603516 0.000000 0.000000 11.554412 1.931032 20.226749 -2.957607 -0.090307 -0.002318 -76.273819 6.165395 -7.636069 -76.022087 -46.674404 -11.167580 43.797733 -29.650763 1.233563 2.957607 0.090307 -0.002334 74.254631 10.403916 -7.333761 69.115639 28.477942 -2.822655 -43.579891 35.470150 14.678118 0.018398 11.768817 9.030005 -1.311170 -0.395861 -0.964763 5.322174 -3.742305 -21.103237 17.433397 -9.237861 -31.452065 -5.420352 -0.805642 8.046947 -11.963838 -8.548467 9.126434 
-49.512463 46.318718 -50.239529 3.418612 1.111301 69.089996 0.000000 0.000000 0.000000 1.055409 2.118782 4.873343 -8.603516 0.000000 0.000000 11.534852 1.921313 20.108404 -2.957607 -0.090307 -0.002318 -76.295708 6.076934 -7.469069 -75.965866 -46.690044 -11.059500 43.816242 -29.727684 1.199386 2.957607 0.090307 -0.002334 74.204025 10.314096 -7.517070 69.130554 28.488306 -2.841203 -43.645119 35.670799 14.563244 0.115911 11.654325 8.917063 -1.402200 -0.397010 -0.960982 5.303301 -3.602542 -21.050394 17.499439 -9.306803 -31.589460 -5.444182 -0.797368 8.123911 -11.986259 -8.521436 9.172055 
-49.486862 46.307274 -50.248028 3.467461 1.120991 69.081772 0.000000 0.000000 0.000000 0.977225 2.109069 5.016770 -8.603516 0.000000 0.000000 11.525048 1.901824 19.989891 -2.957607 -0.090307 -0.002318 -76.318436 5.998127 -7.322677 -75.925507 -46.719997 -10.977941 43.843422 -29.794064 1.155389 2.957607 0.090307 -0.002334 74.163956 10.205217 -7.690845 69.153915 28.503122 -2.836110 -43.729977 35.869785 14.453920 0.214028 11.539032 8.803762 -1.502953 -0.398021 -0.956801 5.296609 -3.471846 -20.989410 17.559410 -9.354316 -31.722841 -5.481957 -0.823949 8.222461 -12.000953 -8.524549 9.257803 
-49.458420 46.298779 -50.262302 3.516311 1.130681 69.083328 0.000000 0.000000 0.000000 0.899036 2.089587 5.160070 -8.603516 0.000000 0.000000 11.525015 1.882318 19.861940 -2.957607 -0.090307 -0.002318 -76.340500 5.909605 -7.165471 -75.870438 -46.756641 -10.882560 43.929081 -29.855457 1.091604 2.957607 0.090307 -0.002334 74.122887 10.115856 -7.864568 69.168152 28.512341 -2.835176 -43.794201 36.060707 14.377963 0.312013 11.431927 8.700718 -1.602984 -0.398660 -0.942811 5.282694 -3.356776 -20.955072 17.605793 -9.433744 -31.852314 -5.470377 -0.846026 8.312454 -12.056817 -8.558224 9.325180 
-49.421482 46.287449 -50.273636 3.565160 1.140368 69.065361 0.000000 0.000000 0.000000 0.820853 2.079865 5.303565 -8.603516 0.000000 0.000000 11.534754 1.862796 19.744070 -2.957607 -0.090307 -0.002318 -76.362427 5.801346 -7.057038 -75.839577 -46.788578 -10.797572 44.101349 -29.899672 1.120225 2.957607 0.090307 -0.002334 74.081314 10.036257 -8.039969 69.187141 28.524626 -2.837041 -43.824219 36.215267 14.366411 0.409118 11.314215 8.596843 -1.694931 -0.387510 -0.919847 5.265629 -3.243350 -20.920441 17.675581 -9.483034 -31.965965 -5.470812 -0.855815 8.391410 -12.115099 -8.549674 9.381495 
-49.390099 46.273174 -50.285076 3.623778 1.150040 69.067154 0.000000 0.000000 0.000000 0.732900 2.070143 5.436967 -8.603516 0.000000 0.000000 11.554263 1.843258 19.626511 -2.957607 -0.090307 -0.002318 -76.385048 5.692906 -6.987688 -75.835587 -46.858028 -10.755465 44.269188 -29.905010 1.153778 2.957607 0.090307 -0.002334 74.050278 9.937598 -8.204126 69.206146 28.536894 -2.838905 -43.792831 36.276855 14.419407 0.496716 11.193479 8.521780 -1.786629 -0.378762 -0.916379 5.252913 -3.143790 -20.870180 17.759014 -9.530810 -32.100163 -5.462038 -0.911823 8.483553 -12.202386 -8.553290 9.462655 
